<svg xmlns="http://www.w3.org/2000/svg" width="36" height="36" viewBox="0 0 36 36">
  <g id="Group_2103" data-name="Group 2103" transform="translate(-3371.571 -1503.477)">
    <path id="Path_2516" data-name="Path 2516" d="M0,0H36V36H0Z" transform="translate(3371.571 1503.477)" fill="none"/>
    <path id="Path_2499" data-name="Path 2499" d="M3487.832,1507.691a9.928,9.928,0,0,1,4.461.887l-2.383,6.251a5.981,5.981,0,0,0-2.1-.366Z" transform="translate(-97.5 -2.259)" fill="#eb1c2d"/>
    <path id="Path_2500" data-name="Path 2500" d="M.023.009A9.929,9.929,0,0,1,4.483.9L2.1,7.147A5.978,5.978,0,0,0,0,6.781Z" transform="translate(3396.044 1506.749) rotate(22)" fill="#d3a029"/>
    <path id="Path_2501" data-name="Path 2501" d="M.023.009A9.929,9.929,0,0,1,4.483.9L2.1,7.147A5.978,5.978,0,0,0,0,6.781Z" transform="translate(3401.03 1510.15) rotate(43)" fill="#279b48"/>
    <path id="Path_2502" data-name="Path 2502" d="M.023.009A9.929,9.929,0,0,1,4.483.9L2.1,7.147A5.978,5.978,0,0,0,0,6.781Z" transform="matrix(0.438, 0.899, -0.899, 0.438, 3404.366, 1514.988)" fill="#c31f33"/>
    <path id="Path_2503" data-name="Path 2503" d="M.023.009A9.929,9.929,0,0,1,4.483.9L2.1,7.147A5.978,5.978,0,0,0,0,6.781Z" transform="translate(3405.682 1520.643) rotate(84)" fill="#ef402b"/>
    <path id="Path_2504" data-name="Path 2504" d="M.023.009A9.929,9.929,0,0,1,4.483.9L2.1,7.147A5.978,5.978,0,0,0,0,6.781Z" transform="matrix(-0.259, 0.966, -0.966, -0.259, 3405.025, 1526.38)" fill="#00aed9"/>
    <path id="Path_2505" data-name="Path 2505" d="M.023.009A9.929,9.929,0,0,1,4.483.9L2.1,7.147A5.978,5.978,0,0,0,0,6.781Z" transform="matrix(-0.616, 0.788, -0.788, -0.616, 3402.285, 1531.784)" fill="#fdb713"/>
    <path id="Path_2506" data-name="Path 2506" d="M.023.009A9.929,9.929,0,0,1,4.483.9L2.1,7.147A5.978,5.978,0,0,0,0,6.781Z" transform="matrix(-0.839, 0.545, -0.545, -0.839, 3397.684, 1535.325)" fill="#8f1838"/>
    <path id="Path_2507" data-name="Path 2507" d="M.023.009A9.929,9.929,0,0,1,4.483.9L2.1,7.147A5.978,5.978,0,0,0,0,6.781Z" transform="matrix(-0.982, 0.191, -0.191, -0.982, 3392.058, 1537.362)" fill="#f36d25"/>
    <path id="Path_2508" data-name="Path 2508" d="M.023.009A9.929,9.929,0,0,1,4.483.9L2.1,7.147A5.978,5.978,0,0,0,0,6.781Z" transform="translate(3380.528 1534.993) rotate(-149)" fill="#f99d26"/>
    <path id="Path_2509" data-name="Path 2509" d="M.023.009A9.929,9.929,0,0,1,4.483.9L2.1,7.147A5.978,5.978,0,0,0,0,6.781Z" transform="translate(3386.192 1537.148) rotate(-170)" fill="#e11484"/>
    <path id="Path_2510" data-name="Path 2510" d="M.023.009A9.929,9.929,0,0,1,4.483.9L2.1,7.147A5.978,5.978,0,0,0,0,6.781Z" transform="translate(3376.472 1530.628) rotate(-128)" fill="#ce8d29"/>
    <path id="Path_2511" data-name="Path 2511" d="M.023.009A9.929,9.929,0,0,1,4.483.9L2.1,7.147A5.978,5.978,0,0,0,0,6.781Z" transform="translate(3374.12 1525.316) rotate(-107)" fill="#48773e"/>
    <path id="Path_2512" data-name="Path 2512" d="M.023.009A9.929,9.929,0,0,1,4.483.9L2.1,7.147A5.978,5.978,0,0,0,0,6.781Z" transform="translate(3373.711 1519.264) rotate(-85)" fill="#007dbc"/>
    <path id="Path_2513" data-name="Path 2513" d="M.023.009A9.929,9.929,0,0,1,4.483.9L2.1,7.147A5.978,5.978,0,0,0,0,6.781Z" transform="translate(3375.61 1513.486) rotate(-63)" fill="#5dbb46"/>
    <path id="Path_2514" data-name="Path 2514" d="M.023.009A9.929,9.929,0,0,1,4.483.9L2.1,7.147A5.978,5.978,0,0,0,0,6.781Z" transform="matrix(0.731, -0.682, 0.682, 0.731, 3379.339, 1509.113)" fill="#02558b"/>
    <path id="Path_2515" data-name="Path 2515" d="M.023.009A9.929,9.929,0,0,1,4.483.9L2.1,7.147A5.978,5.978,0,0,0,0,6.781Z" transform="matrix(0.934, -0.358, 0.358, 0.934, 3384.548, 1506.344)" fill="#183668"/>
  </g>
</svg>
